<?xml version="1.0" encoding="UTF-8"?>
<svg id="Square" xmlns="http://www.w3.org/2000/svg" version="1.1" viewBox="0 0 1594.3 1594.3">
  <!-- Generator: Adobe Illustrator 29.0.1, SVG Export Plug-In . SVG Version: 2.1.0 Build 192)  -->
  <path id="v" fill="#c03" d="M138.9,736.2l15.6,90.3c3,18.2,5.9,36.5,8.9,56.8h.9c2.5-20.7,5.1-37.7,8-56.8l16.1-90.3h54.6l-55.4,202.6h-51.2l-56.3-202.6h58.8,0Z"/>
  <path id="a" fill="#c03" d="M356.7,938.8l-3-19.9h-.9c-11.4,15.7-27.5,20.2-45.7,20.2-31.3,0-54.6-22.7-54.6-58.7,0-53,47.8-75,94.8-75.4v-4.6c0-15.7-9.7-27.4-29.2-27.4s-30,4.1-42.3,11.6l-10.1-36.5c11.4-6.6,35.5-12.3,64.3-12.3,63,0,73.2,40.1,73.2,81.1v75.4c0,16.2.9,32.7,3.4,46.4h-49.9ZM349.1,840.2c-18.6.4-44,6.2-44,34.4s11.4,27.8,19.9,27.8,19-5.4,22.8-17.4c.9-2.9,1.3-6.2,1.3-9.5v-35.2h0Z"/>
  <rect id="l" fill="#c03" x="442.6" y="652.1" width="55.4" height="286.7"/>
  <path id="a1" data-name="a" fill="#c03" d="M630.4,938.8l-3-19.9h-.8c-11.4,15.7-27.5,20.2-45.7,20.2-31.3,0-54.6-22.7-54.6-58.7,0-53,47.8-75,94.8-75.4v-4.6c0-15.7-9.7-27.4-29.2-27.4s-30,4.1-42.3,11.6l-10.2-36.5c11.4-6.6,35.5-12.3,64.3-12.3,63,0,73.2,40.1,73.2,81.1v75.4c0,16.2.8,32.7,3.4,46.4h-49.9ZM622.8,840.2c-18.6.4-44,6.2-44,34.4s11.4,27.8,19.9,27.8,19-5.4,22.8-17.4c.8-2.9,1.3-6.2,1.3-9.5v-35.2h0Z"/>
  <path id="i" fill="#c03" d="M771.7,682.4c.4,17.4-12.3,29.4-29.2,29.4s-27.9-12-27.5-29.4c-.4-18.2,13.1-29.4,28.3-29.4s28.3,11.2,28.3,29.4M716.3,736.2h55.4v202.6h-55.4v-202.6h0Z"/>
  <path id="s" fill="#c03" d="M808.9,890c8,5,23.3,10.8,37.2,10.8s22.4-6.2,22.4-18.2-5.9-17-24.1-27.4c-33.8-18.6-41.9-39.8-41.9-58.4,0-36.5,26.7-60.8,68.1-60.8s30.9,1.1,41.9,6.1l-9.7,39.8c-8-4.6-17.8-8.3-28.8-8.3s-20.7,8.3-20.7,17.4,4.7,14.1,24.1,25.3c30.5,17,41.9,38.1,41.9,61.3,0,41.4-30.5,61.8-73.2,61.8s-37.6-2.6-47.4-9.6l10.2-39.8h0Z"/>
  <path id="c" fill="#999" d="M1062.2,935.5c-5.5,2.5-19.5,2.8-35.1,2.8-52.5,0-86.7-32.6-86.7-98.9s37.6-103.1,94.7-103.1,25,0,30.4,2.4l-7.2,42.7c-4.7-1.7-11.4-3.7-20.7-3.7-26.7,0-42.3,24.9-42.3,60.1s15.7,59.2,41.5,59.2,14.8-1.2,20.7-4.1l4.7,42.7h0Z"/>
  <path id="o" fill="#999" d="M1238.1,836.9c0,84.5-46.8,102.2-77.5,102.2-48.5,0-77.5-35.1-77.5-101s38.1-102.2,78.3-102.2,76.7,37.2,76.7,101M1137,836.9c0,34.8,5.4,63.8,24.9,63.8s22-34,22-63.8-4.6-63-22.8-63-24,35.2-24,63"/>
  <path id="m" fill="#999" d="M1265.4,797.1c0-22.4-1.3-41.8-1.7-60.9h48.2l2.5,23.6h.8c10.6-15.3,27.9-23.9,49.5-23.9s38.1,7.4,45.3,24.4h.8c5.1-7.9,12.7-15.3,20.7-20.3,8.5-4.6,18.6-4,29.2-4,36.8,0,53.3,25.6,53.3,74.5v128.5h-55v-119.3c0-23.2-2.5-41.8-19.5-41.8s-16.9,6.6-20.7,18.6c-.8,2.9-1.7,8.7-1.7,14.1v128.5h-55v-127.2c0-14.5-1.7-34-19-34s-16.9,6.2-20.7,18.2c-1.3,3.7-2.1,9.5-2.1,15.3v127.6h-55v-141.7h0v-.2Z"/>
</svg>